solid TSTRUCT.smooth
facet normal 1.0 0.0 -0.0
 outer loop
  vertex 100.0 40.0 15.0
  vertex 100.0 40.0 20.0
  vertex 100.0 35.0 20.0
 endloop
endfacet
facet normal 0.0 1.0 -0.0
 outer loop
  vertex 100.0 40.0 15.0
  vertex 95.0 40.0 20.0
  vertex 100.0 40.0 20.0
 endloop
endfacet
facet normal 0.0 0.0 1.0
 outer loop
  vertex 100.0 35.0 20.0
  vertex 95.0 30.0 20.0
  vertex 100.0 30.0 20.0
 endloop
endfacet
facet normal 1.0 0.0 -0.0
 outer loop
  vertex 100.0 30.0 15.0
  vertex 100.0 30.0 20.0
  vertex 100.0 25.0 20.0
 endloop
endfacet
facet normal 0.0 0.0 1.0
 outer loop
  vertex 100.0 25.0 20.0
  vertex 95.0 20.0 20.0
  vertex 100.0 20.0 20.0
 endloop
endfacet
facet normal 1.0 0.0 -0.0
 outer loop
  vertex 100.0 20.0 15.0
  vertex 100.0 20.0 20.0
  vertex 100.0 15.0 20.0
 endloop
endfacet
facet normal 0.0 0.0 1.0
 outer loop
  vertex 100.0 15.0 20.0
  vertex 95.0 10.0 20.0
  vertex 100.0 10.0 20.0
 endloop
endfacet
facet normal 1.0 0.0 -0.0
 outer loop
  vertex 100.0 10.0 15.0
  vertex 100.0 10.0 20.0
  vertex 100.0 5.0 20.0
 endloop
endfacet
facet normal 0.0 0.0 1.0
 outer loop
  vertex 100.0 5.0 20.0
  vertex 95.0 0.0 20.0
  vertex 100.0 0.0 20.0
 endloop
endfacet
facet normal 1.0 0.0 0.0
 outer loop
  vertex 100.0 5.0 10.0
  vertex 100.0 0.0 15.0
  vertex 100.0 0.0 10.0
 endloop
endfacet
facet normal 0.0 -1.0 -0.0
 outer loop
  vertex 100.0 0.0 15.0
  vertex 95.0 0.0 10.0
  vertex 100.0 0.0 10.0
 endloop
endfacet
facet normal 1.0 0.0 -0.0
 outer loop
  vertex 100.0 40.0 5.0
  vertex 100.0 40.0 10.0
  vertex 100.0 35.0 10.0
 endloop
endfacet
facet normal 0.0 1.0 -0.0
 outer loop
  vertex 100.0 40.0 5.0
  vertex 95.0 40.0 10.0
  vertex 100.0 40.0 10.0
 endloop
endfacet
facet normal 1.0 0.0 0.0
 outer loop
  vertex 100.0 35.0 0.0
  vertex 100.0 30.0 5.0
  vertex 100.0 30.0 0.0
 endloop
endfacet
facet normal 1.0 0.0 0.0
 outer loop
  vertex 100.0 25.0 0.0
  vertex 100.0 20.0 5.0
  vertex 100.0 20.0 0.0
 endloop
endfacet
facet normal 1.0 0.0 0.0
 outer loop
  vertex 100.0 15.0 0.0
  vertex 100.0 10.0 5.0
  vertex 100.0 10.0 0.0
 endloop
endfacet
facet normal 1.0 0.0 0.0
 outer loop
  vertex 100.0 5.0 0.0
  vertex 100.0 0.0 5.0
  vertex 100.0 0.0 0.0
 endloop
endfacet
facet normal 0.0 -1.0 -0.0
 outer loop
  vertex 100.0 0.0 5.0
  vertex 95.0 0.0 0.0
  vertex 100.0 0.0 0.0
 endloop
endfacet
facet normal 0.0 0.0 -1.0
 outer loop
  vertex 100.0 35.0 0.0
  vertex 95.0 40.0 0.0
  vertex 100.0 40.0 0.0
 endloop
endfacet
facet normal 0.0 0.0 -1.0
 outer loop
  vertex 100.0 25.0 0.0
  vertex 95.0 30.0 0.0
  vertex 100.0 30.0 0.0
 endloop
endfacet
facet normal 0.0 0.0 -1.0
 outer loop
  vertex 100.0 15.0 0.0
  vertex 95.0 20.0 0.0
  vertex 100.0 20.0 0.0
 endloop
endfacet
facet normal 0.0 0.0 -1.0
 outer loop
  vertex 100.0 5.0 0.0
  vertex 95.0 10.0 0.0
  vertex 100.0 10.0 0.0
 endloop
endfacet
facet normal 0.0 0.0 1.0
 outer loop
  vertex 95.0 40.0 20.0
  vertex 90.0 40.0 20.0
  vertex 90.0 35.0 20.0
 endloop
endfacet
facet normal -0.0 -1.0 0.0
 outer loop
  vertex 95.0 0.0 20.0
  vertex 90.0 0.0 20.0
  vertex 90.0 0.0 15.0
 endloop
endfacet
facet normal 0.0 1.0 0.0
 outer loop
  vertex 95.0 40.0 0.0
  vertex 90.0 40.0 0.0
  vertex 90.0 40.0 5.0
 endloop
endfacet
facet normal 0.0 0.0 -1.0
 outer loop
  vertex 95.0 0.0 0.0
  vertex 90.0 0.0 0.0
  vertex 90.0 5.0 0.0
 endloop
endfacet
facet normal 0.0 1.0 -0.0
 outer loop
  vertex 90.0 40.0 15.0
  vertex 85.0 40.0 20.0
  vertex 90.0 40.0 20.0
 endloop
endfacet
facet normal 0.0 0.0 1.0
 outer loop
  vertex 90.0 5.0 20.0
  vertex 85.0 0.0 20.0
  vertex 90.0 0.0 20.0
 endloop
endfacet
facet normal 0.0 -1.0 -0.0
 outer loop
  vertex 90.0 0.0 5.0
  vertex 85.0 0.0 0.0
  vertex 90.0 0.0 0.0
 endloop
endfacet
facet normal 0.0 0.0 -1.0
 outer loop
  vertex 90.0 35.0 0.0
  vertex 85.0 40.0 0.0
  vertex 90.0 40.0 0.0
 endloop
endfacet
facet normal 0.0 0.0 1.0
 outer loop
  vertex 85.0 40.0 20.0
  vertex 80.0 40.0 20.0
  vertex 80.0 35.0 20.0
 endloop
endfacet
facet normal -0.0 -1.0 0.0
 outer loop
  vertex 85.0 0.0 20.0
  vertex 80.0 0.0 20.0
  vertex 80.0 0.0 15.0
 endloop
endfacet
facet normal 0.0 1.0 0.0
 outer loop
  vertex 85.0 40.0 0.0
  vertex 80.0 40.0 0.0
  vertex 80.0 40.0 5.0
 endloop
endfacet
facet normal 0.0 0.0 -1.0
 outer loop
  vertex 85.0 0.0 0.0
  vertex 80.0 0.0 0.0
  vertex 80.0 5.0 0.0
 endloop
endfacet
facet normal 0.0 1.0 -0.0
 outer loop
  vertex 80.0 40.0 15.0
  vertex 75.0 40.0 20.0
  vertex 80.0 40.0 20.0
 endloop
endfacet
facet normal 0.0 0.0 1.0
 outer loop
  vertex 80.0 5.0 20.0
  vertex 75.0 0.0 20.0
  vertex 80.0 0.0 20.0
 endloop
endfacet
facet normal 0.0 -1.0 -0.0
 outer loop
  vertex 80.0 0.0 5.0
  vertex 75.0 0.0 0.0
  vertex 80.0 0.0 0.0
 endloop
endfacet
facet normal 0.0 0.0 -1.0
 outer loop
  vertex 80.0 35.0 0.0
  vertex 75.0 40.0 0.0
  vertex 80.0 40.0 0.0
 endloop
endfacet
facet normal 0.0 0.0 1.0
 outer loop
  vertex 75.0 40.0 20.0
  vertex 70.0 40.0 20.0
  vertex 70.0 35.0 20.0
 endloop
endfacet
facet normal -0.0 -1.0 0.0
 outer loop
  vertex 75.0 0.0 20.0
  vertex 70.0 0.0 20.0
  vertex 70.0 0.0 15.0
 endloop
endfacet
facet normal 0.0 1.0 0.0
 outer loop
  vertex 75.0 40.0 0.0
  vertex 70.0 40.0 0.0
  vertex 70.0 40.0 5.0
 endloop
endfacet
facet normal 0.0 0.0 -1.0
 outer loop
  vertex 75.0 0.0 0.0
  vertex 70.0 0.0 0.0
  vertex 70.0 5.0 0.0
 endloop
endfacet
facet normal 0.0 1.0 -0.0
 outer loop
  vertex 70.0 40.0 15.0
  vertex 65.0 40.0 20.0
  vertex 70.0 40.0 20.0
 endloop
endfacet
facet normal 0.0 0.0 1.0
 outer loop
  vertex 70.0 5.0 20.0
  vertex 65.0 0.0 20.0
  vertex 70.0 0.0 20.0
 endloop
endfacet
facet normal 0.0 -1.0 -0.0
 outer loop
  vertex 70.0 0.0 5.0
  vertex 65.0 0.0 0.0
  vertex 70.0 0.0 0.0
 endloop
endfacet
facet normal 0.0 0.0 -1.0
 outer loop
  vertex 70.0 35.0 0.0
  vertex 65.0 40.0 0.0
  vertex 70.0 40.0 0.0
 endloop
endfacet
facet normal 0.0 0.0 1.0
 outer loop
  vertex 65.0 40.0 20.0
  vertex 60.0 40.0 20.0
  vertex 60.0 35.0 20.0
 endloop
endfacet
facet normal -0.0 -1.0 0.0
 outer loop
  vertex 65.0 0.0 20.0
  vertex 60.0 0.0 20.0
  vertex 60.0 0.0 15.0
 endloop
endfacet
facet normal 0.0 1.0 0.0
 outer loop
  vertex 65.0 40.0 0.0
  vertex 60.0 40.0 0.0
  vertex 60.0 40.0 5.0
 endloop
endfacet
facet normal 0.0 0.0 -1.0
 outer loop
  vertex 65.0 0.0 0.0
  vertex 60.0 0.0 0.0
  vertex 60.0 5.0 0.0
 endloop
endfacet
facet normal 0.0 1.0 -0.0
 outer loop
  vertex 60.0 40.0 15.0
  vertex 55.0 40.0 20.0
  vertex 60.0 40.0 20.0
 endloop
endfacet
facet normal 0.0 0.0 1.0
 outer loop
  vertex 60.0 5.0 20.0
  vertex 55.0 0.0 20.0
  vertex 60.0 0.0 20.0
 endloop
endfacet
facet normal 0.0 -1.0 -0.0
 outer loop
  vertex 60.0 0.0 5.0
  vertex 55.0 0.0 0.0
  vertex 60.0 0.0 0.0
 endloop
endfacet
facet normal 0.0 0.0 -1.0
 outer loop
  vertex 60.0 35.0 0.0
  vertex 55.0 40.0 0.0
  vertex 60.0 40.0 0.0
 endloop
endfacet
facet normal 0.0 0.0 1.0
 outer loop
  vertex 55.0 40.0 20.0
  vertex 50.0 40.0 20.0
  vertex 50.0 35.0 20.0
 endloop
endfacet
facet normal -0.0 -1.0 0.0
 outer loop
  vertex 55.0 0.0 20.0
  vertex 50.0 0.0 20.0
  vertex 50.0 0.0 15.0
 endloop
endfacet
facet normal 0.0 1.0 0.0
 outer loop
  vertex 55.0 40.0 0.0
  vertex 50.0 40.0 0.0
  vertex 50.0 40.0 5.0
 endloop
endfacet
facet normal 0.0 0.0 -1.0
 outer loop
  vertex 55.0 0.0 0.0
  vertex 50.0 0.0 0.0
  vertex 50.0 5.0 0.0
 endloop
endfacet
facet normal 0.0 1.0 -0.0
 outer loop
  vertex 50.0 40.0 15.0
  vertex 45.0 40.0 20.0
  vertex 50.0 40.0 20.0
 endloop
endfacet
facet normal 0.0 0.0 1.0
 outer loop
  vertex 50.0 5.0 20.0
  vertex 45.0 0.0 20.0
  vertex 50.0 0.0 20.0
 endloop
endfacet
facet normal 0.0 -1.0 -0.0
 outer loop
  vertex 50.0 0.0 5.0
  vertex 45.0 0.0 0.0
  vertex 50.0 0.0 0.0
 endloop
endfacet
facet normal 0.0 0.0 -1.0
 outer loop
  vertex 50.0 35.0 0.0
  vertex 45.0 40.0 0.0
  vertex 50.0 40.0 0.0
 endloop
endfacet
facet normal 0.0 0.0 1.0
 outer loop
  vertex 45.0 40.0 20.0
  vertex 40.0 40.0 20.0
  vertex 40.0 35.0 20.0
 endloop
endfacet
facet normal -0.0 -1.0 0.0
 outer loop
  vertex 45.0 0.0 20.0
  vertex 40.0 0.0 20.0
  vertex 40.0 0.0 15.0
 endloop
endfacet
facet normal 0.0 1.0 0.0
 outer loop
  vertex 45.0 40.0 0.0
  vertex 40.0 40.0 0.0
  vertex 40.0 40.0 5.0
 endloop
endfacet
facet normal 0.0 0.0 -1.0
 outer loop
  vertex 45.0 0.0 0.0
  vertex 40.0 0.0 0.0
  vertex 40.0 5.0 0.0
 endloop
endfacet
facet normal 0.0 1.0 -0.0
 outer loop
  vertex 40.0 40.0 15.0
  vertex 35.0 40.0 20.0
  vertex 40.0 40.0 20.0
 endloop
endfacet
facet normal 0.0 0.0 1.0
 outer loop
  vertex 40.0 5.0 20.0
  vertex 35.0 0.0 20.0
  vertex 40.0 0.0 20.0
 endloop
endfacet
facet normal 0.0 -1.0 -0.0
 outer loop
  vertex 40.0 0.0 5.0
  vertex 35.0 0.0 0.0
  vertex 40.0 0.0 0.0
 endloop
endfacet
facet normal 0.0 0.0 -1.0
 outer loop
  vertex 40.0 35.0 0.0
  vertex 35.0 40.0 0.0
  vertex 40.0 40.0 0.0
 endloop
endfacet
facet normal 0.0 0.0 1.0
 outer loop
  vertex 35.0 40.0 20.0
  vertex 30.0 40.0 20.0
  vertex 30.0 35.0 20.0
 endloop
endfacet
facet normal -0.0 -1.0 0.0
 outer loop
  vertex 35.0 0.0 20.0
  vertex 30.0 0.0 20.0
  vertex 30.0 0.0 15.0
 endloop
endfacet
facet normal 0.0 1.0 0.0
 outer loop
  vertex 35.0 40.0 0.0
  vertex 30.0 40.0 0.0
  vertex 30.0 40.0 5.0
 endloop
endfacet
facet normal 0.0 0.0 -1.0
 outer loop
  vertex 35.0 0.0 0.0
  vertex 30.0 0.0 0.0
  vertex 30.0 5.0 0.0
 endloop
endfacet
facet normal 0.0 1.0 -0.0
 outer loop
  vertex 30.0 40.0 15.0
  vertex 25.0 40.0 20.0
  vertex 30.0 40.0 20.0
 endloop
endfacet
facet normal 0.0 0.0 1.0
 outer loop
  vertex 30.0 5.0 20.0
  vertex 25.0 0.0 20.0
  vertex 30.0 0.0 20.0
 endloop
endfacet
facet normal 0.0 -1.0 -0.0
 outer loop
  vertex 30.0 0.0 5.0
  vertex 25.0 0.0 0.0
  vertex 30.0 0.0 0.0
 endloop
endfacet
facet normal 0.0 0.0 -1.0
 outer loop
  vertex 30.0 35.0 0.0
  vertex 25.0 40.0 0.0
  vertex 30.0 40.0 0.0
 endloop
endfacet
facet normal 0.0 0.0 1.0
 outer loop
  vertex 25.0 40.0 20.0
  vertex 20.0 40.0 20.0
  vertex 20.0 35.0 20.0
 endloop
endfacet
facet normal -0.0 -1.0 0.0
 outer loop
  vertex 25.0 0.0 20.0
  vertex 20.0 0.0 20.0
  vertex 20.0 0.0 15.0
 endloop
endfacet
facet normal 0.0 1.0 0.0
 outer loop
  vertex 25.0 40.0 0.0
  vertex 20.0 40.0 0.0
  vertex 20.0 40.0 5.0
 endloop
endfacet
facet normal 0.0 0.0 -1.0
 outer loop
  vertex 25.0 0.0 0.0
  vertex 20.0 0.0 0.0
  vertex 20.0 5.0 0.0
 endloop
endfacet
facet normal 0.0 1.0 -0.0
 outer loop
  vertex 20.0 40.0 15.0
  vertex 15.0 40.0 20.0
  vertex 20.0 40.0 20.0
 endloop
endfacet
facet normal 0.0 0.0 1.0
 outer loop
  vertex 20.0 5.0 20.0
  vertex 15.0 0.0 20.0
  vertex 20.0 0.0 20.0
 endloop
endfacet
facet normal 0.0 -1.0 -0.0
 outer loop
  vertex 20.0 0.0 5.0
  vertex 15.0 0.0 0.0
  vertex 20.0 0.0 0.0
 endloop
endfacet
facet normal 0.0 0.0 -1.0
 outer loop
  vertex 20.0 35.0 0.0
  vertex 15.0 40.0 0.0
  vertex 20.0 40.0 0.0
 endloop
endfacet
facet normal 0.0 0.0 1.0
 outer loop
  vertex 15.0 40.0 20.0
  vertex 10.0 40.0 20.0
  vertex 10.0 35.0 20.0
 endloop
endfacet
facet normal -0.0 -1.0 0.0
 outer loop
  vertex 15.0 0.0 20.0
  vertex 10.0 0.0 20.0
  vertex 10.0 0.0 15.0
 endloop
endfacet
facet normal 0.0 1.0 0.0
 outer loop
  vertex 15.0 40.0 0.0
  vertex 10.0 40.0 0.0
  vertex 10.0 40.0 5.0
 endloop
endfacet
facet normal 0.0 0.0 -1.0
 outer loop
  vertex 15.0 0.0 0.0
  vertex 10.0 0.0 0.0
  vertex 10.0 5.0 0.0
 endloop
endfacet
facet normal 0.0 1.0 -0.0
 outer loop
  vertex 10.0 40.0 15.0
  vertex 5.0 40.0 20.0
  vertex 10.0 40.0 20.0
 endloop
endfacet
facet normal 0.0 0.0 1.0
 outer loop
  vertex 10.0 5.0 20.0
  vertex 5.0 0.0 20.0
  vertex 10.0 0.0 20.0
 endloop
endfacet
facet normal 0.0 -1.0 -0.0
 outer loop
  vertex 10.0 0.0 5.0
  vertex 5.0 0.0 0.0
  vertex 10.0 0.0 0.0
 endloop
endfacet
facet normal 0.0 0.0 -1.0
 outer loop
  vertex 10.0 35.0 0.0
  vertex 5.0 40.0 0.0
  vertex 10.0 40.0 0.0
 endloop
endfacet
facet normal 0.0 0.0 1.0
 outer loop
  vertex 5.0 40.0 20.0
  vertex 0.0 40.0 20.0
  vertex 0.0 35.0 20.0
 endloop
endfacet
facet normal 0.0 0.0 1.0
 outer loop
  vertex 5.0 30.0 20.0
  vertex 0.0 30.0 20.0
  vertex 0.0 25.0 20.0
 endloop
endfacet
facet normal 0.0 0.0 1.0
 outer loop
  vertex 5.0 20.0 20.0
  vertex 0.0 20.0 20.0
  vertex 0.0 15.0 20.0
 endloop
endfacet
facet normal 0.0 0.0 1.0
 outer loop
  vertex 5.0 10.0 20.0
  vertex 0.0 10.0 20.0
  vertex 0.0 5.0 20.0
 endloop
endfacet
facet normal -0.0 -1.0 0.0
 outer loop
  vertex 5.0 0.0 20.0
  vertex 0.0 0.0 20.0
  vertex 0.0 0.0 15.0
 endloop
endfacet
facet normal 0.0 1.0 0.0
 outer loop
  vertex 5.0 40.0 10.0
  vertex 0.0 40.0 10.0
  vertex 0.0 40.0 15.0
 endloop
endfacet
facet normal -0.0 -1.0 0.0
 outer loop
  vertex 5.0 0.0 10.0
  vertex 0.0 0.0 10.0
  vertex 0.0 0.0 5.0
 endloop
endfacet
facet normal 0.0 1.0 0.0
 outer loop
  vertex 5.0 40.0 0.0
  vertex 0.0 40.0 0.0
  vertex 0.0 40.0 5.0
 endloop
endfacet
facet normal 0.0 0.0 -1.0
 outer loop
  vertex 5.0 30.0 0.0
  vertex 0.0 30.0 0.0
  vertex 0.0 35.0 0.0
 endloop
endfacet
facet normal 0.0 0.0 -1.0
 outer loop
  vertex 5.0 20.0 0.0
  vertex 0.0 20.0 0.0
  vertex 0.0 25.0 0.0
 endloop
endfacet
facet normal 0.0 0.0 -1.0
 outer loop
  vertex 5.0 10.0 0.0
  vertex 0.0 10.0 0.0
  vertex 0.0 15.0 0.0
 endloop
endfacet
facet normal 0.0 0.0 -1.0
 outer loop
  vertex 5.0 0.0 0.0
  vertex 0.0 0.0 0.0
  vertex 0.0 5.0 0.0
 endloop
endfacet
facet normal -1.0 0.0 0.0
 outer loop
  vertex 0.0 30.0 15.0
  vertex 0.0 30.0 20.0
  vertex 0.0 35.0 20.0
 endloop
endfacet
facet normal -1.0 0.0 0.0
 outer loop
  vertex 0.0 20.0 15.0
  vertex 0.0 20.0 20.0
  vertex 0.0 25.0 20.0
 endloop
endfacet
facet normal -1.0 0.0 0.0
 outer loop
  vertex 0.0 10.0 15.0
  vertex 0.0 10.0 20.0
  vertex 0.0 15.0 20.0
 endloop
endfacet
facet normal -1.0 0.0 0.0
 outer loop
  vertex 0.0 0.0 15.0
  vertex 0.0 0.0 20.0
  vertex 0.0 5.0 20.0
 endloop
endfacet
facet normal -1.0 0.0 0.0
 outer loop
  vertex 0.0 35.0 10.0
  vertex 0.0 40.0 15.0
  vertex 0.0 40.0 10.0
 endloop
endfacet
facet normal -1.0 0.0 0.0
 outer loop
  vertex 0.0 0.0 5.0
  vertex 0.0 0.0 10.0
  vertex 0.0 5.0 10.0
 endloop
endfacet
facet normal -1.0 0.0 0.0
 outer loop
  vertex 0.0 35.0 0.0
  vertex 0.0 40.0 5.0
  vertex 0.0 40.0 0.0
 endloop
endfacet
facet normal -1.0 0.0 0.0
 outer loop
  vertex 0.0 25.0 0.0
  vertex 0.0 30.0 5.0
  vertex 0.0 30.0 0.0
 endloop
endfacet
facet normal -1.0 0.0 0.0
 outer loop
  vertex 0.0 15.0 0.0
  vertex 0.0 20.0 5.0
  vertex 0.0 20.0 0.0
 endloop
endfacet
facet normal -1.0 0.0 0.0
 outer loop
  vertex 0.0 5.0 0.0
  vertex 0.0 10.0 5.0
  vertex 0.0 10.0 0.0
 endloop
endfacet
facet normal 1.0 0.0 0.0
 outer loop
  vertex 100.0 35.0 20.0
  vertex 100.0 30.0 20.0
  vertex 100.0 30.0 15.0
 endloop
endfacet
facet normal 1.0 0.0 0.0
 outer loop
  vertex 100.0 35.0 10.0
  vertex 100.0 40.0 10.0
  vertex 100.0 40.0 15.0
 endloop
endfacet
facet normal 1.0 0.0 0.0
 outer loop
  vertex 100.0 35.0 10.0
  vertex 100.0 40.0 15.0
  vertex 100.0 35.0 20.0
 endloop
endfacet
facet normal 1.0 0.0 -0.0
 outer loop
  vertex 100.0 35.0 10.0
  vertex 100.0 35.0 20.0
  vertex 100.0 30.0 15.0
 endloop
endfacet
facet normal 1.0 0.0 0.0
 outer loop
  vertex 100.0 25.0 20.0
  vertex 100.0 20.0 20.0
  vertex 100.0 20.0 15.0
 endloop
endfacet
facet normal 1.0 0.0 0.0
 outer loop
  vertex 100.0 15.0 20.0
  vertex 100.0 10.0 20.0
  vertex 100.0 10.0 15.0
 endloop
endfacet
facet normal 1.0 0.0 0.0
 outer loop
  vertex 100.0 5.0 20.0
  vertex 100.0 0.0 20.0
  vertex 100.0 0.0 15.0
 endloop
endfacet
facet normal 1.0 0.0 0.0
 outer loop
  vertex 100.0 5.0 10.0
  vertex 100.0 10.0 15.0
  vertex 100.0 5.0 20.0
 endloop
endfacet
facet normal 1.0 0.0 -0.0
 outer loop
  vertex 100.0 5.0 10.0
  vertex 100.0 5.0 20.0
  vertex 100.0 0.0 15.0
 endloop
endfacet
facet normal 1.0 0.0 0.0
 outer loop
  vertex 100.0 35.0 0.0
  vertex 100.0 40.0 0.0
  vertex 100.0 40.0 5.0
 endloop
endfacet
facet normal 1.0 0.0 0.0
 outer loop
  vertex 100.0 35.0 0.0
  vertex 100.0 40.0 5.0
  vertex 100.0 35.0 10.0
 endloop
endfacet
facet normal 1.0 0.0 -0.0
 outer loop
  vertex 100.0 35.0 0.0
  vertex 100.0 35.0 10.0
  vertex 100.0 30.0 5.0
 endloop
endfacet
facet normal 1.0 0.0 0.0
 outer loop
  vertex 100.0 25.0 0.0
  vertex 100.0 30.0 0.0
  vertex 100.0 30.0 5.0
 endloop
endfacet
facet normal 1.0 0.0 0.0
 outer loop
  vertex 100.0 15.0 0.0
  vertex 100.0 20.0 0.0
  vertex 100.0 20.0 5.0
 endloop
endfacet
facet normal 1.0 0.0 0.0
 outer loop
  vertex 100.0 5.0 10.0
  vertex 100.0 0.0 10.0
  vertex 100.0 0.0 5.0
 endloop
endfacet
facet normal 1.0 0.0 0.0
 outer loop
  vertex 100.0 5.0 0.0
  vertex 100.0 10.0 0.0
  vertex 100.0 10.0 5.0
 endloop
endfacet
facet normal 1.0 0.0 0.0
 outer loop
  vertex 100.0 5.0 0.0
  vertex 100.0 10.0 5.0
  vertex 100.0 5.0 10.0
 endloop
endfacet
facet normal 1.0 0.0 -0.0
 outer loop
  vertex 100.0 5.0 0.0
  vertex 100.0 5.0 10.0
  vertex 100.0 0.0 5.0
 endloop
endfacet
facet normal 0.0 -0.0 1.0
 outer loop
  vertex 100.0 35.0 20.0
  vertex 100.0 40.0 20.0
  vertex 95.0 40.0 20.0
 endloop
endfacet
facet normal 0.0 0.0 1.0
 outer loop
  vertex 100.0 35.0 20.0
  vertex 95.0 40.0 20.0
  vertex 90.0 35.0 20.0
 endloop
endfacet
facet normal 0.0 0.0 1.0
 outer loop
  vertex 100.0 35.0 20.0
  vertex 90.0 35.0 20.0
  vertex 95.0 30.0 20.0
 endloop
endfacet
facet normal 0.0 -0.0 1.0
 outer loop
  vertex 100.0 25.0 20.0
  vertex 100.0 30.0 20.0
  vertex 95.0 30.0 20.0
 endloop
endfacet
facet normal 0.0 -0.0 1.0
 outer loop
  vertex 100.0 15.0 20.0
  vertex 100.0 20.0 20.0
  vertex 95.0 20.0 20.0
 endloop
endfacet
facet normal 0.0 -0.0 1.0
 outer loop
  vertex 100.0 5.0 20.0
  vertex 100.0 10.0 20.0
  vertex 95.0 10.0 20.0
 endloop
endfacet
facet normal 0.0 0.0 1.0
 outer loop
  vertex 90.0 5.0 20.0
  vertex 90.0 0.0 20.0
  vertex 95.0 0.0 20.0
 endloop
endfacet
facet normal 0.0 0.0 1.0
 outer loop
  vertex 100.0 5.0 20.0
  vertex 95.0 10.0 20.0
  vertex 90.0 5.0 20.0
 endloop
endfacet
facet normal 0.0 0.0 1.0
 outer loop
  vertex 100.0 5.0 20.0
  vertex 90.0 5.0 20.0
  vertex 95.0 0.0 20.0
 endloop
endfacet
facet normal 0.0 1.0 0.0
 outer loop
  vertex 100.0 40.0 15.0
  vertex 100.0 40.0 10.0
  vertex 95.0 40.0 10.0
 endloop
endfacet
facet normal 0.0 1.0 0.0
 outer loop
  vertex 90.0 40.0 15.0
  vertex 90.0 40.0 20.0
  vertex 95.0 40.0 20.0
 endloop
endfacet
facet normal 0.0 1.0 0.0
 outer loop
  vertex 95.0 40.0 20.0
  vertex 100.0 40.0 15.0
  vertex 95.0 40.0 10.0
 endloop
endfacet
facet normal 0.0 1.0 0.0
 outer loop
  vertex 95.0 40.0 20.0
  vertex 95.0 40.0 10.0
  vertex 90.0 40.0 15.0
 endloop
endfacet
facet normal 0.0 -1.0 0.0
 outer loop
  vertex 100.0 0.0 15.0
  vertex 100.0 0.0 20.0
  vertex 95.0 0.0 20.0
 endloop
endfacet
facet normal 0.0 -1.0 0.0
 outer loop
  vertex 100.0 0.0 15.0
  vertex 95.0 0.0 20.0
  vertex 90.0 0.0 15.0
 endloop
endfacet
facet normal -0.0 -1.0 0.0
 outer loop
  vertex 100.0 0.0 15.0
  vertex 90.0 0.0 15.0
  vertex 95.0 0.0 10.0
 endloop
endfacet
facet normal 0.0 1.0 0.0
 outer loop
  vertex 100.0 40.0 5.0
  vertex 100.0 40.0 0.0
  vertex 95.0 40.0 0.0
 endloop
endfacet
facet normal 0.0 1.0 0.0
 outer loop
  vertex 90.0 40.0 5.0
  vertex 95.0 40.0 10.0
  vertex 100.0 40.0 5.0
 endloop
endfacet
facet normal -0.0 1.0 0.0
 outer loop
  vertex 90.0 40.0 5.0
  vertex 100.0 40.0 5.0
  vertex 95.0 40.0 0.0
 endloop
endfacet
facet normal 0.0 -1.0 0.0
 outer loop
  vertex 100.0 0.0 5.0
  vertex 100.0 0.0 10.0
  vertex 95.0 0.0 10.0
 endloop
endfacet
facet normal 0.0 -1.0 0.0
 outer loop
  vertex 90.0 0.0 5.0
  vertex 90.0 0.0 0.0
  vertex 95.0 0.0 0.0
 endloop
endfacet
facet normal 0.0 -1.0 0.0
 outer loop
  vertex 100.0 0.0 5.0
  vertex 95.0 0.0 10.0
  vertex 90.0 0.0 5.0
 endloop
endfacet
facet normal -0.0 -1.0 0.0
 outer loop
  vertex 100.0 0.0 5.0
  vertex 90.0 0.0 5.0
  vertex 95.0 0.0 0.0
 endloop
endfacet
facet normal 0.0 -0.0 -1.0
 outer loop
  vertex 100.0 35.0 0.0
  vertex 100.0 30.0 0.0
  vertex 95.0 30.0 0.0
 endloop
endfacet
facet normal 0.0 0.0 -1.0
 outer loop
  vertex 90.0 35.0 0.0
  vertex 90.0 40.0 0.0
  vertex 95.0 40.0 0.0
 endloop
endfacet
facet normal 0.0 0.0 -1.0
 outer loop
  vertex 90.0 35.0 0.0
  vertex 95.0 40.0 0.0
  vertex 100.0 35.0 0.0
 endloop
endfacet
facet normal 0.0 0.0 -1.0
 outer loop
  vertex 90.0 35.0 0.0
  vertex 100.0 35.0 0.0
  vertex 95.0 30.0 0.0
 endloop
endfacet
facet normal 0.0 -0.0 -1.0
 outer loop
  vertex 100.0 25.0 0.0
  vertex 100.0 20.0 0.0
  vertex 95.0 20.0 0.0
 endloop
endfacet
facet normal 0.0 -0.0 -1.0
 outer loop
  vertex 100.0 15.0 0.0
  vertex 100.0 10.0 0.0
  vertex 95.0 10.0 0.0
 endloop
endfacet
facet normal 0.0 -0.0 -1.0
 outer loop
  vertex 100.0 5.0 0.0
  vertex 100.0 0.0 0.0
  vertex 95.0 0.0 0.0
 endloop
endfacet
facet normal 0.0 0.0 -1.0
 outer loop
  vertex 90.0 5.0 0.0
  vertex 95.0 10.0 0.0
  vertex 100.0 5.0 0.0
 endloop
endfacet
facet normal 0.0 0.0 -1.0
 outer loop
  vertex 90.0 5.0 0.0
  vertex 100.0 5.0 0.0
  vertex 95.0 0.0 0.0
 endloop
endfacet
facet normal 0.0 -0.0 1.0
 outer loop
  vertex 90.0 35.0 20.0
  vertex 90.0 40.0 20.0
  vertex 85.0 40.0 20.0
 endloop
endfacet
facet normal 0.0 0.0 1.0
 outer loop
  vertex 80.0 5.0 20.0
  vertex 80.0 0.0 20.0
  vertex 85.0 0.0 20.0
 endloop
endfacet
facet normal 0.0 0.0 1.0
 outer loop
  vertex 90.0 5.0 20.0
  vertex 80.0 5.0 20.0
  vertex 85.0 0.0 20.0
 endloop
endfacet
facet normal 0.0 1.0 0.0
 outer loop
  vertex 80.0 40.0 15.0
  vertex 80.0 40.0 20.0
  vertex 85.0 40.0 20.0
 endloop
endfacet
facet normal 0.0 -1.0 0.0
 outer loop
  vertex 90.0 0.0 15.0
  vertex 90.0 0.0 20.0
  vertex 85.0 0.0 20.0
 endloop
endfacet
facet normal 0.0 -1.0 0.0
 outer loop
  vertex 90.0 0.0 15.0
  vertex 85.0 0.0 20.0
  vertex 80.0 0.0 15.0
 endloop
endfacet
facet normal 0.0 1.0 0.0
 outer loop
  vertex 90.0 40.0 5.0
  vertex 90.0 40.0 0.0
  vertex 85.0 40.0 0.0
 endloop
endfacet
facet normal -0.0 1.0 0.0
 outer loop
  vertex 80.0 40.0 5.0
  vertex 90.0 40.0 5.0
  vertex 85.0 40.0 0.0
 endloop
endfacet
facet normal 0.0 -1.0 0.0
 outer loop
  vertex 80.0 0.0 5.0
  vertex 80.0 0.0 0.0
  vertex 85.0 0.0 0.0
 endloop
endfacet
facet normal -0.0 -1.0 0.0
 outer loop
  vertex 90.0 0.0 5.0
  vertex 80.0 0.0 5.0
  vertex 85.0 0.0 0.0
 endloop
endfacet
facet normal 0.0 0.0 -1.0
 outer loop
  vertex 80.0 35.0 0.0
  vertex 80.0 40.0 0.0
  vertex 85.0 40.0 0.0
 endloop
endfacet
facet normal 0.0 0.0 -1.0
 outer loop
  vertex 80.0 35.0 0.0
  vertex 85.0 40.0 0.0
  vertex 90.0 35.0 0.0
 endloop
endfacet
facet normal 0.0 -0.0 -1.0
 outer loop
  vertex 90.0 5.0 0.0
  vertex 90.0 0.0 0.0
  vertex 85.0 0.0 0.0
 endloop
endfacet
facet normal -0.0 0.0 -1.0
 outer loop
  vertex 90.0 5.0 0.0
  vertex 85.0 0.0 0.0
  vertex 80.0 5.0 0.0
 endloop
endfacet
facet normal 0.0 -0.0 1.0
 outer loop
  vertex 80.0 35.0 20.0
  vertex 80.0 40.0 20.0
  vertex 75.0 40.0 20.0
 endloop
endfacet
facet normal 0.0 0.0 1.0
 outer loop
  vertex 70.0 5.0 20.0
  vertex 70.0 0.0 20.0
  vertex 75.0 0.0 20.0
 endloop
endfacet
facet normal 0.0 0.0 1.0
 outer loop
  vertex 80.0 5.0 20.0
  vertex 70.0 5.0 20.0
  vertex 75.0 0.0 20.0
 endloop
endfacet
facet normal 0.0 1.0 0.0
 outer loop
  vertex 70.0 40.0 15.0
  vertex 70.0 40.0 20.0
  vertex 75.0 40.0 20.0
 endloop
endfacet
facet normal 0.0 -1.0 0.0
 outer loop
  vertex 80.0 0.0 15.0
  vertex 80.0 0.0 20.0
  vertex 75.0 0.0 20.0
 endloop
endfacet
facet normal 0.0 -1.0 0.0
 outer loop
  vertex 80.0 0.0 15.0
  vertex 75.0 0.0 20.0
  vertex 70.0 0.0 15.0
 endloop
endfacet
facet normal 0.0 1.0 0.0
 outer loop
  vertex 80.0 40.0 5.0
  vertex 80.0 40.0 0.0
  vertex 75.0 40.0 0.0
 endloop
endfacet
facet normal -0.0 1.0 0.0
 outer loop
  vertex 70.0 40.0 5.0
  vertex 80.0 40.0 5.0
  vertex 75.0 40.0 0.0
 endloop
endfacet
facet normal 0.0 -1.0 0.0
 outer loop
  vertex 70.0 0.0 5.0
  vertex 70.0 0.0 0.0
  vertex 75.0 0.0 0.0
 endloop
endfacet
facet normal -0.0 -1.0 0.0
 outer loop
  vertex 80.0 0.0 5.0
  vertex 70.0 0.0 5.0
  vertex 75.0 0.0 0.0
 endloop
endfacet
facet normal 0.0 0.0 -1.0
 outer loop
  vertex 70.0 35.0 0.0
  vertex 70.0 40.0 0.0
  vertex 75.0 40.0 0.0
 endloop
endfacet
facet normal 0.0 0.0 -1.0
 outer loop
  vertex 70.0 35.0 0.0
  vertex 75.0 40.0 0.0
  vertex 80.0 35.0 0.0
 endloop
endfacet
facet normal 0.0 -0.0 -1.0
 outer loop
  vertex 80.0 5.0 0.0
  vertex 80.0 0.0 0.0
  vertex 75.0 0.0 0.0
 endloop
endfacet
facet normal -0.0 0.0 -1.0
 outer loop
  vertex 80.0 5.0 0.0
  vertex 75.0 0.0 0.0
  vertex 70.0 5.0 0.0
 endloop
endfacet
facet normal 0.0 -0.0 1.0
 outer loop
  vertex 70.0 35.0 20.0
  vertex 70.0 40.0 20.0
  vertex 65.0 40.0 20.0
 endloop
endfacet
facet normal 0.0 0.0 1.0
 outer loop
  vertex 60.0 5.0 20.0
  vertex 60.0 0.0 20.0
  vertex 65.0 0.0 20.0
 endloop
endfacet
facet normal 0.0 0.0 1.0
 outer loop
  vertex 70.0 5.0 20.0
  vertex 60.0 5.0 20.0
  vertex 65.0 0.0 20.0
 endloop
endfacet
facet normal 0.0 1.0 0.0
 outer loop
  vertex 60.0 40.0 15.0
  vertex 60.0 40.0 20.0
  vertex 65.0 40.0 20.0
 endloop
endfacet
facet normal 0.0 -1.0 0.0
 outer loop
  vertex 70.0 0.0 15.0
  vertex 70.0 0.0 20.0
  vertex 65.0 0.0 20.0
 endloop
endfacet
facet normal 0.0 -1.0 0.0
 outer loop
  vertex 70.0 0.0 15.0
  vertex 65.0 0.0 20.0
  vertex 60.0 0.0 15.0
 endloop
endfacet
facet normal 0.0 1.0 0.0
 outer loop
  vertex 70.0 40.0 5.0
  vertex 70.0 40.0 0.0
  vertex 65.0 40.0 0.0
 endloop
endfacet
facet normal -0.0 1.0 0.0
 outer loop
  vertex 60.0 40.0 5.0
  vertex 70.0 40.0 5.0
  vertex 65.0 40.0 0.0
 endloop
endfacet
facet normal 0.0 -1.0 0.0
 outer loop
  vertex 60.0 0.0 5.0
  vertex 60.0 0.0 0.0
  vertex 65.0 0.0 0.0
 endloop
endfacet
facet normal -0.0 -1.0 0.0
 outer loop
  vertex 70.0 0.0 5.0
  vertex 60.0 0.0 5.0
  vertex 65.0 0.0 0.0
 endloop
endfacet
facet normal 0.0 0.0 -1.0
 outer loop
  vertex 60.0 35.0 0.0
  vertex 60.0 40.0 0.0
  vertex 65.0 40.0 0.0
 endloop
endfacet
facet normal 0.0 0.0 -1.0
 outer loop
  vertex 60.0 35.0 0.0
  vertex 65.0 40.0 0.0
  vertex 70.0 35.0 0.0
 endloop
endfacet
facet normal 0.0 -0.0 -1.0
 outer loop
  vertex 70.0 5.0 0.0
  vertex 70.0 0.0 0.0
  vertex 65.0 0.0 0.0
 endloop
endfacet
facet normal -0.0 0.0 -1.0
 outer loop
  vertex 70.0 5.0 0.0
  vertex 65.0 0.0 0.0
  vertex 60.0 5.0 0.0
 endloop
endfacet
facet normal 0.0 -0.0 1.0
 outer loop
  vertex 60.0 35.0 20.0
  vertex 60.0 40.0 20.0
  vertex 55.0 40.0 20.0
 endloop
endfacet
facet normal 0.0 0.0 1.0
 outer loop
  vertex 50.0 5.0 20.0
  vertex 50.0 0.0 20.0
  vertex 55.0 0.0 20.0
 endloop
endfacet
facet normal 0.0 1.0 0.0
 outer loop
  vertex 50.0 40.0 15.0
  vertex 50.0 40.0 20.0
  vertex 55.0 40.0 20.0
 endloop
endfacet
facet normal 0.0 -1.0 0.0
 outer loop
  vertex 60.0 0.0 15.0
  vertex 60.0 0.0 20.0
  vertex 55.0 0.0 20.0
 endloop
endfacet
facet normal 0.0 -1.0 0.0
 outer loop
  vertex 60.0 0.0 15.0
  vertex 55.0 0.0 20.0
  vertex 50.0 0.0 15.0
 endloop
endfacet
facet normal 0.0 1.0 0.0
 outer loop
  vertex 60.0 40.0 5.0
  vertex 60.0 40.0 0.0
  vertex 55.0 40.0 0.0
 endloop
endfacet
facet normal -0.0 1.0 0.0
 outer loop
  vertex 50.0 40.0 5.0
  vertex 60.0 40.0 5.0
  vertex 55.0 40.0 0.0
 endloop
endfacet
facet normal 0.0 -1.0 0.0
 outer loop
  vertex 50.0 0.0 5.0
  vertex 50.0 0.0 0.0
  vertex 55.0 0.0 0.0
 endloop
endfacet
facet normal -0.0 -1.0 0.0
 outer loop
  vertex 60.0 0.0 5.0
  vertex 50.0 0.0 5.0
  vertex 55.0 0.0 0.0
 endloop
endfacet
facet normal 0.0 0.0 -1.0
 outer loop
  vertex 50.0 35.0 0.0
  vertex 50.0 40.0 0.0
  vertex 55.0 40.0 0.0
 endloop
endfacet
facet normal 0.0 0.0 -1.0
 outer loop
  vertex 50.0 35.0 0.0
  vertex 55.0 40.0 0.0
  vertex 60.0 35.0 0.0
 endloop
endfacet
facet normal 0.0 -0.0 -1.0
 outer loop
  vertex 60.0 5.0 0.0
  vertex 60.0 0.0 0.0
  vertex 55.0 0.0 0.0
 endloop
endfacet
facet normal -0.0 0.0 -1.0
 outer loop
  vertex 60.0 5.0 0.0
  vertex 55.0 0.0 0.0
  vertex 50.0 5.0 0.0
 endloop
endfacet
facet normal 0.0 -0.0 1.0
 outer loop
  vertex 50.0 35.0 20.0
  vertex 50.0 40.0 20.0
  vertex 45.0 40.0 20.0
 endloop
endfacet
facet normal 0.0 0.0 1.0
 outer loop
  vertex 40.0 5.0 20.0
  vertex 40.0 0.0 20.0
  vertex 45.0 0.0 20.0
 endloop
endfacet
facet normal 0.0 1.0 0.0
 outer loop
  vertex 40.0 40.0 15.0
  vertex 40.0 40.0 20.0
  vertex 45.0 40.0 20.0
 endloop
endfacet
facet normal 0.0 -1.0 0.0
 outer loop
  vertex 50.0 0.0 15.0
  vertex 50.0 0.0 20.0
  vertex 45.0 0.0 20.0
 endloop
endfacet
facet normal 0.0 1.0 0.0
 outer loop
  vertex 50.0 40.0 5.0
  vertex 50.0 40.0 0.0
  vertex 45.0 40.0 0.0
 endloop
endfacet
facet normal -0.0 1.0 0.0
 outer loop
  vertex 40.0 40.0 5.0
  vertex 50.0 40.0 5.0
  vertex 45.0 40.0 0.0
 endloop
endfacet
facet normal 0.0 -1.0 0.0
 outer loop
  vertex 40.0 0.0 5.0
  vertex 40.0 0.0 0.0
  vertex 45.0 0.0 0.0
 endloop
endfacet
facet normal -0.0 -1.0 0.0
 outer loop
  vertex 50.0 0.0 5.0
  vertex 40.0 0.0 5.0
  vertex 45.0 0.0 0.0
 endloop
endfacet
facet normal 0.0 0.0 -1.0
 outer loop
  vertex 40.0 35.0 0.0
  vertex 40.0 40.0 0.0
  vertex 45.0 40.0 0.0
 endloop
endfacet
facet normal 0.0 0.0 -1.0
 outer loop
  vertex 40.0 35.0 0.0
  vertex 45.0 40.0 0.0
  vertex 50.0 35.0 0.0
 endloop
endfacet
facet normal 0.0 -0.0 -1.0
 outer loop
  vertex 50.0 5.0 0.0
  vertex 50.0 0.0 0.0
  vertex 45.0 0.0 0.0
 endloop
endfacet
facet normal -0.0 0.0 -1.0
 outer loop
  vertex 50.0 5.0 0.0
  vertex 45.0 0.0 0.0
  vertex 40.0 5.0 0.0
 endloop
endfacet
facet normal 0.0 -0.0 1.0
 outer loop
  vertex 40.0 35.0 20.0
  vertex 40.0 40.0 20.0
  vertex 35.0 40.0 20.0
 endloop
endfacet
facet normal 0.0 0.0 1.0
 outer loop
  vertex 30.0 5.0 20.0
  vertex 30.0 0.0 20.0
  vertex 35.0 0.0 20.0
 endloop
endfacet
facet normal 0.0 1.0 0.0
 outer loop
  vertex 30.0 40.0 15.0
  vertex 30.0 40.0 20.0
  vertex 35.0 40.0 20.0
 endloop
endfacet
facet normal 0.0 -1.0 0.0
 outer loop
  vertex 40.0 0.0 15.0
  vertex 40.0 0.0 20.0
  vertex 35.0 0.0 20.0
 endloop
endfacet
facet normal 0.0 1.0 0.0
 outer loop
  vertex 40.0 40.0 5.0
  vertex 40.0 40.0 0.0
  vertex 35.0 40.0 0.0
 endloop
endfacet
facet normal -0.0 1.0 0.0
 outer loop
  vertex 30.0 40.0 5.0
  vertex 40.0 40.0 5.0
  vertex 35.0 40.0 0.0
 endloop
endfacet
facet normal 0.0 -1.0 0.0
 outer loop
  vertex 30.0 0.0 5.0
  vertex 30.0 0.0 0.0
  vertex 35.0 0.0 0.0
 endloop
endfacet
facet normal 0.0 0.0 -1.0
 outer loop
  vertex 30.0 35.0 0.0
  vertex 30.0 40.0 0.0
  vertex 35.0 40.0 0.0
 endloop
endfacet
facet normal 0.0 0.0 -1.0
 outer loop
  vertex 30.0 35.0 0.0
  vertex 35.0 40.0 0.0
  vertex 40.0 35.0 0.0
 endloop
endfacet
facet normal 0.0 -0.0 -1.0
 outer loop
  vertex 40.0 5.0 0.0
  vertex 40.0 0.0 0.0
  vertex 35.0 0.0 0.0
 endloop
endfacet
facet normal -0.0 0.0 -1.0
 outer loop
  vertex 40.0 5.0 0.0
  vertex 35.0 0.0 0.0
  vertex 30.0 5.0 0.0
 endloop
endfacet
facet normal 0.0 -0.0 1.0
 outer loop
  vertex 30.0 35.0 20.0
  vertex 30.0 40.0 20.0
  vertex 25.0 40.0 20.0
 endloop
endfacet
facet normal 0.0 0.0 1.0
 outer loop
  vertex 20.0 5.0 20.0
  vertex 20.0 0.0 20.0
  vertex 25.0 0.0 20.0
 endloop
endfacet
facet normal 0.0 1.0 0.0
 outer loop
  vertex 20.0 40.0 15.0
  vertex 20.0 40.0 20.0
  vertex 25.0 40.0 20.0
 endloop
endfacet
facet normal 0.0 -1.0 0.0
 outer loop
  vertex 30.0 0.0 15.0
  vertex 30.0 0.0 20.0
  vertex 25.0 0.0 20.0
 endloop
endfacet
facet normal 0.0 1.0 0.0
 outer loop
  vertex 30.0 40.0 5.0
  vertex 30.0 40.0 0.0
  vertex 25.0 40.0 0.0
 endloop
endfacet
facet normal -0.0 1.0 0.0
 outer loop
  vertex 20.0 40.0 5.0
  vertex 30.0 40.0 5.0
  vertex 25.0 40.0 0.0
 endloop
endfacet
facet normal 0.0 -1.0 0.0
 outer loop
  vertex 20.0 0.0 5.0
  vertex 20.0 0.0 0.0
  vertex 25.0 0.0 0.0
 endloop
endfacet
facet normal 0.0 0.0 -1.0
 outer loop
  vertex 20.0 35.0 0.0
  vertex 20.0 40.0 0.0
  vertex 25.0 40.0 0.0
 endloop
endfacet
facet normal 0.0 0.0 -1.0
 outer loop
  vertex 30.0 35.0 0.0
  vertex 20.0 35.0 0.0
  vertex 25.0 40.0 0.0
 endloop
endfacet
facet normal 0.0 -0.0 -1.0
 outer loop
  vertex 30.0 5.0 0.0
  vertex 30.0 0.0 0.0
  vertex 25.0 0.0 0.0
 endloop
endfacet
facet normal 0.0 -0.0 1.0
 outer loop
  vertex 20.0 35.0 20.0
  vertex 20.0 40.0 20.0
  vertex 15.0 40.0 20.0
 endloop
endfacet
facet normal 0.0 0.0 1.0
 outer loop
  vertex 10.0 5.0 20.0
  vertex 10.0 0.0 20.0
  vertex 15.0 0.0 20.0
 endloop
endfacet
facet normal 0.0 1.0 0.0
 outer loop
  vertex 10.0 40.0 15.0
  vertex 10.0 40.0 20.0
  vertex 15.0 40.0 20.0
 endloop
endfacet
facet normal 0.0 -1.0 0.0
 outer loop
  vertex 20.0 0.0 15.0
  vertex 20.0 0.0 20.0
  vertex 15.0 0.0 20.0
 endloop
endfacet
facet normal 0.0 1.0 0.0
 outer loop
  vertex 20.0 40.0 5.0
  vertex 20.0 40.0 0.0
  vertex 15.0 40.0 0.0
 endloop
endfacet
facet normal -0.0 1.0 0.0
 outer loop
  vertex 10.0 40.0 5.0
  vertex 20.0 40.0 5.0
  vertex 15.0 40.0 0.0
 endloop
endfacet
facet normal 0.0 -1.0 0.0
 outer loop
  vertex 10.0 0.0 5.0
  vertex 10.0 0.0 0.0
  vertex 15.0 0.0 0.0
 endloop
endfacet
facet normal 0.0 0.0 -1.0
 outer loop
  vertex 10.0 35.0 0.0
  vertex 10.0 40.0 0.0
  vertex 15.0 40.0 0.0
 endloop
endfacet
facet normal 0.0 0.0 -1.0
 outer loop
  vertex 20.0 35.0 0.0
  vertex 10.0 35.0 0.0
  vertex 15.0 40.0 0.0
 endloop
endfacet
facet normal 0.0 -0.0 -1.0
 outer loop
  vertex 20.0 5.0 0.0
  vertex 20.0 0.0 0.0
  vertex 15.0 0.0 0.0
 endloop
endfacet
facet normal 0.0 -0.0 1.0
 outer loop
  vertex 10.0 35.0 20.0
  vertex 10.0 40.0 20.0
  vertex 5.0 40.0 20.0
 endloop
endfacet
facet normal 0.0 0.0 1.0
 outer loop
  vertex 0.0 35.0 20.0
  vertex 0.0 30.0 20.0
  vertex 5.0 30.0 20.0
 endloop
endfacet
facet normal 0.0 0.0 1.0
 outer loop
  vertex 5.0 30.0 20.0
  vertex 10.0 35.0 20.0
  vertex 5.0 40.0 20.0
 endloop
endfacet
facet normal 0.0 -0.0 1.0
 outer loop
  vertex 5.0 30.0 20.0
  vertex 5.0 40.0 20.0
  vertex 0.0 35.0 20.0
 endloop
endfacet
facet normal 0.0 0.0 1.0
 outer loop
  vertex 0.0 25.0 20.0
  vertex 0.0 20.0 20.0
  vertex 5.0 20.0 20.0
 endloop
endfacet
facet normal 0.0 -0.0 1.0
 outer loop
  vertex 5.0 20.0 20.0
  vertex 5.0 30.0 20.0
  vertex 0.0 25.0 20.0
 endloop
endfacet
facet normal 0.0 0.0 1.0
 outer loop
  vertex 0.0 15.0 20.0
  vertex 0.0 10.0 20.0
  vertex 5.0 10.0 20.0
 endloop
endfacet
facet normal 0.0 -0.0 1.0
 outer loop
  vertex 5.0 10.0 20.0
  vertex 5.0 20.0 20.0
  vertex 0.0 15.0 20.0
 endloop
endfacet
facet normal 0.0 0.0 1.0
 outer loop
  vertex 0.0 5.0 20.0
  vertex 0.0 0.0 20.0
  vertex 5.0 0.0 20.0
 endloop
endfacet
facet normal 0.0 0.0 1.0
 outer loop
  vertex 5.0 0.0 20.0
  vertex 10.0 5.0 20.0
  vertex 5.0 10.0 20.0
 endloop
endfacet
facet normal 0.0 -0.0 1.0
 outer loop
  vertex 5.0 0.0 20.0
  vertex 5.0 10.0 20.0
  vertex 0.0 5.0 20.0
 endloop
endfacet
facet normal 0.0 1.0 0.0
 outer loop
  vertex 0.0 40.0 15.0
  vertex 0.0 40.0 20.0
  vertex 5.0 40.0 20.0
 endloop
endfacet
facet normal 0.0 1.0 0.0
 outer loop
  vertex 5.0 40.0 20.0
  vertex 10.0 40.0 15.0
  vertex 5.0 40.0 10.0
 endloop
endfacet
facet normal 0.0 1.0 0.0
 outer loop
  vertex 5.0 40.0 20.0
  vertex 5.0 40.0 10.0
  vertex 0.0 40.0 15.0
 endloop
endfacet
facet normal 0.0 -1.0 0.0
 outer loop
  vertex 10.0 0.0 15.0
  vertex 10.0 0.0 20.0
  vertex 5.0 0.0 20.0
 endloop
endfacet
facet normal 0.0 -1.0 0.0
 outer loop
  vertex 0.0 0.0 15.0
  vertex 0.0 0.0 10.0
  vertex 5.0 0.0 10.0
 endloop
endfacet
facet normal 0.0 -1.0 0.0
 outer loop
  vertex 5.0 0.0 10.0
  vertex 10.0 0.0 15.0
  vertex 5.0 0.0 20.0
 endloop
endfacet
facet normal 0.0 -1.0 0.0
 outer loop
  vertex 5.0 0.0 10.0
  vertex 5.0 0.0 20.0
  vertex 0.0 0.0 15.0
 endloop
endfacet
facet normal 0.0 1.0 0.0
 outer loop
  vertex 10.0 40.0 5.0
  vertex 10.0 40.0 0.0
  vertex 5.0 40.0 0.0
 endloop
endfacet
facet normal 0.0 1.0 0.0
 outer loop
  vertex 0.0 40.0 5.0
  vertex 0.0 40.0 10.0
  vertex 5.0 40.0 10.0
 endloop
endfacet
facet normal 0.0 1.0 0.0
 outer loop
  vertex 10.0 40.0 5.0
  vertex 5.0 40.0 0.0
  vertex 0.0 40.0 5.0
 endloop
endfacet
facet normal 0.0 1.0 0.0
 outer loop
  vertex 10.0 40.0 5.0
  vertex 0.0 40.0 5.0
  vertex 5.0 40.0 10.0
 endloop
endfacet
facet normal 0.0 -1.0 0.0
 outer loop
  vertex 0.0 0.0 5.0
  vertex 0.0 0.0 0.0
  vertex 5.0 0.0 0.0
 endloop
endfacet
facet normal 0.0 -1.0 0.0
 outer loop
  vertex 5.0 0.0 0.0
  vertex 10.0 0.0 5.0
  vertex 5.0 0.0 10.0
 endloop
endfacet
facet normal 0.0 -1.0 0.0
 outer loop
  vertex 5.0 0.0 0.0
  vertex 5.0 0.0 10.0
  vertex 0.0 0.0 5.0
 endloop
endfacet
facet normal 0.0 0.0 -1.0
 outer loop
  vertex 0.0 35.0 0.0
  vertex 0.0 40.0 0.0
  vertex 5.0 40.0 0.0
 endloop
endfacet
facet normal -0.0 0.0 -1.0
 outer loop
  vertex 10.0 35.0 0.0
  vertex 5.0 30.0 0.0
  vertex 0.0 35.0 0.0
 endloop
endfacet
facet normal 0.0 0.0 -1.0
 outer loop
  vertex 10.0 35.0 0.0
  vertex 0.0 35.0 0.0
  vertex 5.0 40.0 0.0
 endloop
endfacet
facet normal 0.0 0.0 -1.0
 outer loop
  vertex 0.0 25.0 0.0
  vertex 0.0 30.0 0.0
  vertex 5.0 30.0 0.0
 endloop
endfacet
facet normal 0.0 -0.0 -1.0
 outer loop
  vertex 5.0 30.0 0.0
  vertex 5.0 20.0 0.0
  vertex 0.0 25.0 0.0
 endloop
endfacet
facet normal 0.0 0.0 -1.0
 outer loop
  vertex 0.0 15.0 0.0
  vertex 0.0 20.0 0.0
  vertex 5.0 20.0 0.0
 endloop
endfacet
facet normal 0.0 -0.0 -1.0
 outer loop
  vertex 5.0 20.0 0.0
  vertex 5.0 10.0 0.0
  vertex 0.0 15.0 0.0
 endloop
endfacet
facet normal 0.0 -0.0 -1.0
 outer loop
  vertex 10.0 5.0 0.0
  vertex 10.0 0.0 0.0
  vertex 5.0 0.0 0.0
 endloop
endfacet
facet normal 0.0 0.0 -1.0
 outer loop
  vertex 0.0 5.0 0.0
  vertex 0.0 10.0 0.0
  vertex 5.0 10.0 0.0
 endloop
endfacet
facet normal 0.0 0.0 -1.0
 outer loop
  vertex 5.0 10.0 0.0
  vertex 10.0 5.0 0.0
  vertex 5.0 0.0 0.0
 endloop
endfacet
facet normal 0.0 -0.0 -1.0
 outer loop
  vertex 5.0 10.0 0.0
  vertex 5.0 0.0 0.0
  vertex 0.0 5.0 0.0
 endloop
endfacet
facet normal -1.0 0.0 0.0
 outer loop
  vertex 0.0 35.0 20.0
  vertex 0.0 40.0 20.0
  vertex 0.0 40.0 15.0
 endloop
endfacet
facet normal -1.0 0.0 0.0
 outer loop
  vertex 0.0 30.0 15.0
  vertex 0.0 35.0 20.0
  vertex 0.0 40.0 15.0
 endloop
endfacet
facet normal -1.0 0.0 0.0
 outer loop
  vertex 0.0 30.0 15.0
  vertex 0.0 40.0 15.0
  vertex 0.0 35.0 10.0
 endloop
endfacet
facet normal -1.0 0.0 0.0
 outer loop
  vertex 0.0 25.0 20.0
  vertex 0.0 30.0 20.0
  vertex 0.0 30.0 15.0
 endloop
endfacet
facet normal -1.0 0.0 0.0
 outer loop
  vertex 0.0 20.0 15.0
  vertex 0.0 25.0 20.0
  vertex 0.0 30.0 15.0
 endloop
endfacet
facet normal -1.0 0.0 0.0
 outer loop
  vertex 0.0 15.0 20.0
  vertex 0.0 20.0 20.0
  vertex 0.0 20.0 15.0
 endloop
endfacet
facet normal -1.0 0.0 0.0
 outer loop
  vertex 0.0 10.0 15.0
  vertex 0.0 15.0 20.0
  vertex 0.0 20.0 15.0
 endloop
endfacet
facet normal -1.0 0.0 0.0
 outer loop
  vertex 0.0 5.0 10.0
  vertex 0.0 0.0 10.0
  vertex 0.0 0.0 15.0
 endloop
endfacet
facet normal -1.0 0.0 0.0
 outer loop
  vertex 0.0 5.0 20.0
  vertex 0.0 10.0 20.0
  vertex 0.0 10.0 15.0
 endloop
endfacet
facet normal -1.0 0.0 0.0
 outer loop
  vertex 0.0 5.0 10.0
  vertex 0.0 0.0 15.0
  vertex 0.0 5.0 20.0
 endloop
endfacet
facet normal -1.0 0.0 0.0
 outer loop
  vertex 0.0 5.0 10.0
  vertex 0.0 5.0 20.0
  vertex 0.0 10.0 15.0
 endloop
endfacet
facet normal -1.0 0.0 0.0
 outer loop
  vertex 0.0 35.0 0.0
  vertex 0.0 30.0 0.0
  vertex 0.0 30.0 5.0
 endloop
endfacet
facet normal -1.0 0.0 0.0
 outer loop
  vertex 0.0 35.0 10.0
  vertex 0.0 40.0 10.0
  vertex 0.0 40.0 5.0
 endloop
endfacet
facet normal -1.0 -0.0 0.0
 outer loop
  vertex 0.0 40.0 5.0
  vertex 0.0 35.0 0.0
  vertex 0.0 30.0 5.0
 endloop
endfacet
facet normal -1.0 0.0 0.0
 outer loop
  vertex 0.0 40.0 5.0
  vertex 0.0 30.0 5.0
  vertex 0.0 35.0 10.0
 endloop
endfacet
facet normal -1.0 0.0 0.0
 outer loop
  vertex 0.0 25.0 0.0
  vertex 0.0 20.0 0.0
  vertex 0.0 20.0 5.0
 endloop
endfacet
facet normal -1.0 -0.0 0.0
 outer loop
  vertex 0.0 30.0 5.0
  vertex 0.0 25.0 0.0
  vertex 0.0 20.0 5.0
 endloop
endfacet
facet normal -1.0 0.0 0.0
 outer loop
  vertex 0.0 15.0 0.0
  vertex 0.0 10.0 0.0
  vertex 0.0 10.0 5.0
 endloop
endfacet
facet normal -1.0 -0.0 0.0
 outer loop
  vertex 0.0 20.0 5.0
  vertex 0.0 15.0 0.0
  vertex 0.0 10.0 5.0
 endloop
endfacet
facet normal -1.0 0.0 0.0
 outer loop
  vertex 0.0 5.0 0.0
  vertex 0.0 0.0 0.0
  vertex 0.0 0.0 5.0
 endloop
endfacet
facet normal -1.0 -0.0 0.0
 outer loop
  vertex 0.0 10.0 5.0
  vertex 0.0 5.0 0.0
  vertex 0.0 0.0 5.0
 endloop
endfacet
facet normal -1.0 0.0 0.0
 outer loop
  vertex 0.0 10.0 5.0
  vertex 0.0 0.0 5.0
  vertex 0.0 5.0 10.0
 endloop
endfacet
facet normal 0.0 1.0 0.0
 outer loop
  vertex 90.0 40.0 5.0
  vertex 90.0 40.0 15.0
  vertex 95.0 40.0 10.0
 endloop
endfacet
facet normal 0.0 -1.0 0.0
 outer loop
  vertex 90.0 0.0 5.0
  vertex 95.0 0.0 10.0
  vertex 90.0 0.0 15.0
 endloop
endfacet
facet normal 0.0 1.0 -0.0
 outer loop
  vertex 10.0 40.0 5.0
  vertex 5.0 40.0 10.0
  vertex 10.0 40.0 15.0
 endloop
endfacet
facet normal 0.0 -1.0 0.0
 outer loop
  vertex 10.0 0.0 5.0
  vertex 10.0 0.0 15.0
  vertex 5.0 0.0 10.0
 endloop
endfacet
facet normal 1.0 0.0 0.0
 outer loop
  vertex 100.0 30.0 5.0
  vertex 100.0 35.0 10.0
  vertex 100.0 30.0 15.0
 endloop
endfacet
facet normal 1.0 0.0 0.0
 outer loop
  vertex 100.0 30.0 15.0
  vertex 100.0 25.0 20.0
  vertex 100.0 20.0 15.0
 endloop
endfacet
facet normal 1.0 -0.0 0.0
 outer loop
  vertex 100.0 20.0 5.0
  vertex 100.0 25.0 0.0
  vertex 100.0 30.0 5.0
 endloop
endfacet
facet normal 1.0 0.0 0.0
 outer loop
  vertex 100.0 20.0 5.0
  vertex 100.0 30.0 5.0
  vertex 100.0 30.0 15.0
 endloop
endfacet
facet normal 1.0 0.0 0.0
 outer loop
  vertex 100.0 20.0 5.0
  vertex 100.0 30.0 15.0
  vertex 100.0 20.0 15.0
 endloop
endfacet
facet normal 0.0 0.0 -1.0
 outer loop
  vertex 95.0 30.0 0.0
  vertex 100.0 25.0 0.0
  vertex 95.0 20.0 0.0
 endloop
endfacet
facet normal 0.0 1.0 0.0
 outer loop
  vertex 80.0 40.0 15.0
  vertex 85.0 40.0 20.0
  vertex 90.0 40.0 15.0
 endloop
endfacet
facet normal 0.0 1.0 0.0
 outer loop
  vertex 90.0 40.0 5.0
  vertex 80.0 40.0 5.0
  vertex 80.0 40.0 15.0
 endloop
endfacet
facet normal 0.0 1.0 -0.0
 outer loop
  vertex 90.0 40.0 5.0
  vertex 80.0 40.0 15.0
  vertex 90.0 40.0 15.0
 endloop
endfacet
facet normal 0.0 0.0 -1.0
 outer loop
  vertex 90.0 5.0 0.0
  vertex 80.0 5.0 0.0
  vertex 80.0 15.0 0.0
 endloop
endfacet
facet normal 0.0 1.0 0.0
 outer loop
  vertex 70.0 40.0 15.0
  vertex 75.0 40.0 20.0
  vertex 80.0 40.0 15.0
 endloop
endfacet
facet normal 0.0 1.0 0.0
 outer loop
  vertex 80.0 40.0 5.0
  vertex 70.0 40.0 5.0
  vertex 70.0 40.0 15.0
 endloop
endfacet
facet normal 0.0 1.0 -0.0
 outer loop
  vertex 80.0 40.0 5.0
  vertex 70.0 40.0 15.0
  vertex 80.0 40.0 15.0
 endloop
endfacet
facet normal 0.0 1.0 0.0
 outer loop
  vertex 60.0 40.0 15.0
  vertex 65.0 40.0 20.0
  vertex 70.0 40.0 15.0
 endloop
endfacet
facet normal 0.0 1.0 0.0
 outer loop
  vertex 70.0 40.0 5.0
  vertex 60.0 40.0 5.0
  vertex 60.0 40.0 15.0
 endloop
endfacet
facet normal 0.0 1.0 -0.0
 outer loop
  vertex 70.0 40.0 5.0
  vertex 60.0 40.0 15.0
  vertex 70.0 40.0 15.0
 endloop
endfacet
facet normal 0.0 1.0 0.0
 outer loop
  vertex 50.0 40.0 15.0
  vertex 55.0 40.0 20.0
  vertex 60.0 40.0 15.0
 endloop
endfacet
facet normal 0.0 1.0 0.0
 outer loop
  vertex 60.0 40.0 5.0
  vertex 50.0 40.0 5.0
  vertex 50.0 40.0 15.0
 endloop
endfacet
facet normal 0.0 1.0 -0.0
 outer loop
  vertex 60.0 40.0 5.0
  vertex 50.0 40.0 15.0
  vertex 60.0 40.0 15.0
 endloop
endfacet
facet normal 0.0 0.0 -1.0
 outer loop
  vertex 60.0 25.0 0.0
  vertex 50.0 35.0 0.0
  vertex 60.0 35.0 0.0
 endloop
endfacet
facet normal 0.0 0.0 -1.0
 outer loop
  vertex 50.0 15.0 0.0
  vertex 60.0 5.0 0.0
  vertex 50.0 5.0 0.0
 endloop
endfacet
facet normal 0.0 1.0 0.0
 outer loop
  vertex 40.0 40.0 15.0
  vertex 45.0 40.0 20.0
  vertex 50.0 40.0 15.0
 endloop
endfacet
facet normal 0.0 1.0 0.0
 outer loop
  vertex 50.0 40.0 5.0
  vertex 40.0 40.0 5.0
  vertex 40.0 40.0 15.0
 endloop
endfacet
facet normal 0.0 1.0 -0.0
 outer loop
  vertex 50.0 40.0 5.0
  vertex 40.0 40.0 15.0
  vertex 50.0 40.0 15.0
 endloop
endfacet
facet normal 0.0 1.0 0.0
 outer loop
  vertex 30.0 40.0 15.0
  vertex 35.0 40.0 20.0
  vertex 40.0 40.0 15.0
 endloop
endfacet
facet normal 0.0 1.0 0.0
 outer loop
  vertex 40.0 40.0 5.0
  vertex 30.0 40.0 5.0
  vertex 30.0 40.0 15.0
 endloop
endfacet
facet normal 0.0 1.0 -0.0
 outer loop
  vertex 40.0 40.0 5.0
  vertex 30.0 40.0 15.0
  vertex 40.0 40.0 15.0
 endloop
endfacet
facet normal 0.0 1.0 0.0
 outer loop
  vertex 20.0 40.0 15.0
  vertex 25.0 40.0 20.0
  vertex 30.0 40.0 15.0
 endloop
endfacet
facet normal 0.0 1.0 0.0
 outer loop
  vertex 30.0 40.0 5.0
  vertex 20.0 40.0 5.0
  vertex 20.0 40.0 15.0
 endloop
endfacet
facet normal 0.0 1.0 -0.0
 outer loop
  vertex 30.0 40.0 5.0
  vertex 20.0 40.0 15.0
  vertex 30.0 40.0 15.0
 endloop
endfacet
facet normal 0.0 0.0 -1.0
 outer loop
  vertex 20.0 35.0 0.0
  vertex 30.0 35.0 0.0
  vertex 30.0 25.0 0.0
 endloop
endfacet
facet normal -0.0 0.0 -1.0
 outer loop
  vertex 30.0 5.0 0.0
  vertex 25.0 0.0 0.0
  vertex 20.0 5.0 0.0
 endloop
endfacet
facet normal 0.0 0.0 1.0
 outer loop
  vertex 5.0 30.0 20.0
  vertex 5.0 20.0 20.0
  vertex 15.0 20.0 20.0
 endloop
endfacet
facet normal 0.0 1.0 0.0
 outer loop
  vertex 10.0 40.0 15.0
  vertex 15.0 40.0 20.0
  vertex 20.0 40.0 15.0
 endloop
endfacet
facet normal 0.0 1.0 0.0
 outer loop
  vertex 20.0 40.0 5.0
  vertex 10.0 40.0 5.0
  vertex 10.0 40.0 15.0
 endloop
endfacet
facet normal 0.0 1.0 -0.0
 outer loop
  vertex 20.0 40.0 5.0
  vertex 10.0 40.0 15.0
  vertex 20.0 40.0 15.0
 endloop
endfacet
facet normal -1.0 0.0 0.0
 outer loop
  vertex 0.0 30.0 15.0
  vertex 0.0 35.0 10.0
  vertex 0.0 30.0 5.0
 endloop
endfacet
facet normal -1.0 0.0 0.0
 outer loop
  vertex 0.0 20.0 15.0
  vertex 0.0 30.0 15.0
  vertex 0.0 30.0 5.0
 endloop
endfacet
facet normal -1.0 0.0 0.0
 outer loop
  vertex 0.0 20.0 15.0
  vertex 0.0 30.0 5.0
  vertex 0.0 20.0 5.0
 endloop
endfacet
facet normal 1.0 0.0 0.0
 outer loop
  vertex 100.0 20.0 15.0
  vertex 100.0 15.0 20.0
  vertex 100.0 10.0 15.0
 endloop
endfacet
facet normal 1.0 0.0 0.0
 outer loop
  vertex 100.0 10.0 15.0
  vertex 100.0 5.0 10.0
  vertex 100.0 10.0 5.0
 endloop
endfacet
facet normal 1.0 -0.0 0.0
 outer loop
  vertex 100.0 10.0 5.0
  vertex 100.0 15.0 0.0
  vertex 100.0 20.0 5.0
 endloop
endfacet
facet normal 1.0 0.0 0.0
 outer loop
  vertex 100.0 10.0 5.0
  vertex 100.0 20.0 5.0
  vertex 100.0 20.0 15.0
 endloop
endfacet
facet normal 1.0 0.0 0.0
 outer loop
  vertex 100.0 10.0 5.0
  vertex 100.0 20.0 15.0
  vertex 100.0 10.0 15.0
 endloop
endfacet
facet normal 0.0 0.0 -1.0
 outer loop
  vertex 60.0 25.0 0.0
  vertex 60.0 35.0 0.0
  vertex 70.0 35.0 0.0
 endloop
endfacet
facet normal 0.0 0.0 -1.0
 outer loop
  vertex 30.0 25.0 0.0
  vertex 30.0 35.0 0.0
  vertex 40.0 35.0 0.0
 endloop
endfacet
facet normal 0.0 0.0 -1.0
 outer loop
  vertex 5.0 20.0 0.0
  vertex 5.0 30.0 0.0
  vertex 10.0 35.0 0.0
 endloop
endfacet
facet normal -0.0 0.0 -1.0
 outer loop
  vertex 20.0 5.0 0.0
  vertex 15.0 0.0 0.0
  vertex 10.0 5.0 0.0
 endloop
endfacet
facet normal -1.0 0.0 0.0
 outer loop
  vertex 0.0 10.0 5.0
  vertex 0.0 5.0 10.0
  vertex 0.0 10.0 15.0
 endloop
endfacet
facet normal -1.0 0.0 0.0
 outer loop
  vertex 0.0 10.0 15.0
  vertex 0.0 20.0 15.0
  vertex 0.0 20.0 5.0
 endloop
endfacet
facet normal -1.0 0.0 0.0
 outer loop
  vertex 0.0 10.0 15.0
  vertex 0.0 20.0 5.0
  vertex 0.0 10.0 5.0
 endloop
endfacet
facet normal 0.0 0.0 -1.0
 outer loop
  vertex 95.0 20.0 0.0
  vertex 100.0 15.0 0.0
  vertex 95.0 10.0 0.0
 endloop
endfacet
facet normal 0.0 0.0 -1.0
 outer loop
  vertex 90.0 5.0 0.0
  vertex 80.0 15.0 0.0
  vertex 95.0 20.0 0.0
 endloop
endfacet
facet normal 0.0 0.0 -1.0
 outer loop
  vertex 90.0 5.0 0.0
  vertex 95.0 20.0 0.0
  vertex 95.0 10.0 0.0
 endloop
endfacet
facet normal 0.0 -0.0 -1.0
 outer loop
  vertex 80.0 15.0 0.0
  vertex 80.0 5.0 0.0
  vertex 70.0 5.0 0.0
 endloop
endfacet
facet normal 0.0 0.0 -1.0
 outer loop
  vertex 60.0 5.0 0.0
  vertex 50.0 15.0 0.0
  vertex 60.0 25.0 0.0
 endloop
endfacet
facet normal 0.0 0.0 -1.0
 outer loop
  vertex 80.0 15.0 0.0
  vertex 70.0 5.0 0.0
  vertex 60.0 5.0 0.0
 endloop
endfacet
facet normal -0.0 0.0 -1.0
 outer loop
  vertex 80.0 15.0 0.0
  vertex 60.0 5.0 0.0
  vertex 60.0 25.0 0.0
 endloop
endfacet
facet normal 0.0 0.0 -1.0
 outer loop
  vertex 50.0 35.0 0.0
  vertex 60.0 25.0 0.0
  vertex 50.0 15.0 0.0
 endloop
endfacet
facet normal -0.0 0.0 -1.0
 outer loop
  vertex 20.0 35.0 0.0
  vertex 5.0 20.0 0.0
  vertex 10.0 35.0 0.0
 endloop
endfacet
facet normal 0.0 -0.0 -1.0
 outer loop
  vertex 50.0 15.0 0.0
  vertex 50.0 5.0 0.0
  vertex 40.0 5.0 0.0
 endloop
endfacet
facet normal 0.0 0.0 -1.0
 outer loop
  vertex 50.0 15.0 0.0
  vertex 40.0 5.0 0.0
  vertex 30.0 5.0 0.0
 endloop
endfacet
facet normal -0.0 0.0 -1.0
 outer loop
  vertex 50.0 15.0 0.0
  vertex 30.0 5.0 0.0
  vertex 30.0 25.0 0.0
 endloop
endfacet
facet normal 0.0 0.0 -1.0
 outer loop
  vertex 50.0 15.0 0.0
  vertex 30.0 25.0 0.0
  vertex 40.0 35.0 0.0
 endloop
endfacet
facet normal 0.0 0.0 -1.0
 outer loop
  vertex 50.0 15.0 0.0
  vertex 40.0 35.0 0.0
  vertex 50.0 35.0 0.0
 endloop
endfacet
facet normal 0.0 0.0 -1.0
 outer loop
  vertex 80.0 35.0 0.0
  vertex 90.0 35.0 0.0
  vertex 95.0 30.0 0.0
 endloop
endfacet
facet normal 0.0 0.0 -1.0
 outer loop
  vertex 80.0 35.0 0.0
  vertex 95.0 30.0 0.0
  vertex 95.0 20.0 0.0
 endloop
endfacet
facet normal 0.0 0.0 -1.0
 outer loop
  vertex 80.0 35.0 0.0
  vertex 95.0 20.0 0.0
  vertex 80.0 15.0 0.0
 endloop
endfacet
facet normal 0.0 0.0 -1.0
 outer loop
  vertex 70.0 35.0 0.0
  vertex 80.0 35.0 0.0
  vertex 80.0 15.0 0.0
 endloop
endfacet
facet normal 0.0 -0.0 -1.0
 outer loop
  vertex 70.0 35.0 0.0
  vertex 80.0 15.0 0.0
  vertex 60.0 25.0 0.0
 endloop
endfacet
facet normal 0.0 0.0 -1.0
 outer loop
  vertex 20.0 5.0 0.0
  vertex 10.0 5.0 0.0
  vertex 5.0 10.0 0.0
 endloop
endfacet
facet normal 0.0 0.0 -1.0
 outer loop
  vertex 20.0 5.0 0.0
  vertex 5.0 10.0 0.0
  vertex 5.0 20.0 0.0
 endloop
endfacet
facet normal 0.0 -0.0 -1.0
 outer loop
  vertex 30.0 25.0 0.0
  vertex 30.0 5.0 0.0
  vertex 20.0 5.0 0.0
 endloop
endfacet
facet normal 0.0 0.0 -1.0
 outer loop
  vertex 30.0 25.0 0.0
  vertex 20.0 5.0 0.0
  vertex 5.0 20.0 0.0
 endloop
endfacet
facet normal -0.0 0.0 -1.0
 outer loop
  vertex 30.0 25.0 0.0
  vertex 5.0 20.0 0.0
  vertex 20.0 35.0 0.0
 endloop
endfacet
facet normal 0.0 -1.0 0.0
 outer loop
  vertex 80.0 0.0 5.0
  vertex 90.0 0.0 5.0
  vertex 90.0 0.0 15.0
 endloop
endfacet
facet normal 0.0 -1.0 0.0
 outer loop
  vertex 80.0 0.0 5.0
  vertex 90.0 0.0 15.0
  vertex 80.0 0.0 15.0
 endloop
endfacet
facet normal 0.0 0.0 1.0
 outer loop
  vertex 95.0 20.0 20.0
  vertex 100.0 25.0 20.0
  vertex 95.0 30.0 20.0
 endloop
endfacet
facet normal 0.0 0.0 1.0
 outer loop
  vertex 80.0 35.0 20.0
  vertex 75.0 40.0 20.0
  vertex 70.0 35.0 20.0
 endloop
endfacet
facet normal 0.0 -1.0 0.0
 outer loop
  vertex 70.0 0.0 5.0
  vertex 80.0 0.0 5.0
  vertex 80.0 0.0 15.0
 endloop
endfacet
facet normal 0.0 -1.0 0.0
 outer loop
  vertex 70.0 0.0 5.0
  vertex 80.0 0.0 15.0
  vertex 70.0 0.0 15.0
 endloop
endfacet
facet normal 0.0 -1.0 0.0
 outer loop
  vertex 60.0 0.0 5.0
  vertex 70.0 0.0 5.0
  vertex 70.0 0.0 15.0
 endloop
endfacet
facet normal 0.0 -1.0 0.0
 outer loop
  vertex 60.0 0.0 5.0
  vertex 70.0 0.0 15.0
  vertex 60.0 0.0 15.0
 endloop
endfacet
facet normal 0.0 0.0 1.0
 outer loop
  vertex 60.0 35.0 20.0
  vertex 55.0 40.0 20.0
  vertex 50.0 35.0 20.0
 endloop
endfacet
facet normal -0.0 0.0 1.0
 outer loop
  vertex 50.0 5.0 20.0
  vertex 55.0 0.0 20.0
  vertex 60.0 5.0 20.0
 endloop
endfacet
facet normal 0.0 -1.0 0.0
 outer loop
  vertex 50.0 0.0 5.0
  vertex 60.0 0.0 5.0
  vertex 60.0 0.0 15.0
 endloop
endfacet
facet normal 0.0 -1.0 0.0
 outer loop
  vertex 50.0 0.0 5.0
  vertex 60.0 0.0 15.0
  vertex 50.0 0.0 15.0
 endloop
endfacet
facet normal 0.0 -1.0 0.0
 outer loop
  vertex 50.0 0.0 15.0
  vertex 45.0 0.0 20.0
  vertex 40.0 0.0 15.0
 endloop
endfacet
facet normal 0.0 -1.0 0.0
 outer loop
  vertex 40.0 0.0 5.0
  vertex 50.0 0.0 5.0
  vertex 50.0 0.0 15.0
 endloop
endfacet
facet normal 0.0 -1.0 0.0
 outer loop
  vertex 40.0 0.0 5.0
  vertex 50.0 0.0 15.0
  vertex 40.0 0.0 15.0
 endloop
endfacet
facet normal 0.0 0.0 1.0
 outer loop
  vertex 40.0 35.0 20.0
  vertex 35.0 40.0 20.0
  vertex 30.0 35.0 20.0
 endloop
endfacet
facet normal -0.0 0.0 1.0
 outer loop
  vertex 30.0 5.0 20.0
  vertex 35.0 0.0 20.0
  vertex 40.0 5.0 20.0
 endloop
endfacet
facet normal 0.0 -1.0 0.0
 outer loop
  vertex 30.0 0.0 5.0
  vertex 35.0 0.0 0.0
  vertex 40.0 0.0 5.0
 endloop
endfacet
facet normal 0.0 -1.0 0.0
 outer loop
  vertex 40.0 0.0 15.0
  vertex 35.0 0.0 20.0
  vertex 30.0 0.0 15.0
 endloop
endfacet
facet normal -0.0 -1.0 0.0
 outer loop
  vertex 40.0 0.0 15.0
  vertex 30.0 0.0 15.0
  vertex 30.0 0.0 5.0
 endloop
endfacet
facet normal 0.0 -1.0 -0.0
 outer loop
  vertex 40.0 0.0 15.0
  vertex 30.0 0.0 5.0
  vertex 40.0 0.0 5.0
 endloop
endfacet
facet normal 0.0 -1.0 0.0
 outer loop
  vertex 20.0 0.0 5.0
  vertex 25.0 0.0 0.0
  vertex 30.0 0.0 5.0
 endloop
endfacet
facet normal 0.0 -1.0 0.0
 outer loop
  vertex 30.0 0.0 15.0
  vertex 25.0 0.0 20.0
  vertex 20.0 0.0 15.0
 endloop
endfacet
facet normal -0.0 -1.0 0.0
 outer loop
  vertex 30.0 0.0 15.0
  vertex 20.0 0.0 15.0
  vertex 20.0 0.0 5.0
 endloop
endfacet
facet normal 0.0 -1.0 -0.0
 outer loop
  vertex 30.0 0.0 15.0
  vertex 20.0 0.0 5.0
  vertex 30.0 0.0 5.0
 endloop
endfacet
facet normal 0.0 0.0 1.0
 outer loop
  vertex 20.0 35.0 20.0
  vertex 15.0 40.0 20.0
  vertex 10.0 35.0 20.0
 endloop
endfacet
facet normal 0.0 0.0 1.0
 outer loop
  vertex 20.0 35.0 20.0
  vertex 10.0 35.0 20.0
  vertex 5.0 30.0 20.0
 endloop
endfacet
facet normal 0.0 0.0 1.0
 outer loop
  vertex 20.0 35.0 20.0
  vertex 5.0 30.0 20.0
  vertex 15.0 20.0 20.0
 endloop
endfacet
facet normal -0.0 0.0 1.0
 outer loop
  vertex 10.0 5.0 20.0
  vertex 15.0 0.0 20.0
  vertex 20.0 5.0 20.0
 endloop
endfacet
facet normal 0.0 0.0 1.0
 outer loop
  vertex 15.0 20.0 20.0
  vertex 5.0 20.0 20.0
  vertex 5.0 10.0 20.0
 endloop
endfacet
facet normal 0.0 0.0 1.0
 outer loop
  vertex 15.0 20.0 20.0
  vertex 5.0 10.0 20.0
  vertex 10.0 5.0 20.0
 endloop
endfacet
facet normal 0.0 -1.0 0.0
 outer loop
  vertex 10.0 0.0 5.0
  vertex 15.0 0.0 0.0
  vertex 20.0 0.0 5.0
 endloop
endfacet
facet normal 0.0 -1.0 0.0
 outer loop
  vertex 20.0 0.0 15.0
  vertex 15.0 0.0 20.0
  vertex 10.0 0.0 15.0
 endloop
endfacet
facet normal -0.0 -1.0 0.0
 outer loop
  vertex 20.0 0.0 15.0
  vertex 10.0 0.0 15.0
  vertex 10.0 0.0 5.0
 endloop
endfacet
facet normal 0.0 -1.0 -0.0
 outer loop
  vertex 20.0 0.0 15.0
  vertex 10.0 0.0 5.0
  vertex 20.0 0.0 5.0
 endloop
endfacet
facet normal 0.0 0.0 1.0
 outer loop
  vertex 95.0 10.0 20.0
  vertex 100.0 15.0 20.0
  vertex 95.0 20.0 20.0
 endloop
endfacet
facet normal 0.0 0.0 1.0
 outer loop
  vertex 90.0 35.0 20.0
  vertex 85.0 40.0 20.0
  vertex 80.0 35.0 20.0
 endloop
endfacet
facet normal 0.0 0.0 1.0
 outer loop
  vertex 70.0 35.0 20.0
  vertex 65.0 40.0 20.0
  vertex 60.0 35.0 20.0
 endloop
endfacet
facet normal -0.0 0.0 1.0
 outer loop
  vertex 70.0 35.0 20.0
  vertex 75.0 20.0 20.0
  vertex 80.0 35.0 20.0
 endloop
endfacet
facet normal 0.0 0.0 1.0
 outer loop
  vertex 60.0 5.0 20.0
  vertex 55.0 20.0 20.0
  vertex 50.0 5.0 20.0
 endloop
endfacet
facet normal 0.0 0.0 1.0
 outer loop
  vertex 50.0 35.0 20.0
  vertex 45.0 40.0 20.0
  vertex 40.0 35.0 20.0
 endloop
endfacet
facet normal -0.0 0.0 1.0
 outer loop
  vertex 50.0 35.0 20.0
  vertex 55.0 20.0 20.0
  vertex 60.0 35.0 20.0
 endloop
endfacet
facet normal -0.0 0.0 1.0
 outer loop
  vertex 40.0 5.0 20.0
  vertex 45.0 0.0 20.0
  vertex 50.0 5.0 20.0
 endloop
endfacet
facet normal 0.0 0.0 1.0
 outer loop
  vertex 40.0 5.0 20.0
  vertex 35.0 20.0 20.0
  vertex 30.0 5.0 20.0
 endloop
endfacet
facet normal 0.0 0.0 1.0
 outer loop
  vertex 30.0 35.0 20.0
  vertex 25.0 40.0 20.0
  vertex 20.0 35.0 20.0
 endloop
endfacet
facet normal -0.0 0.0 1.0
 outer loop
  vertex 30.0 35.0 20.0
  vertex 35.0 20.0 20.0
  vertex 40.0 35.0 20.0
 endloop
endfacet
facet normal -0.0 0.0 1.0
 outer loop
  vertex 20.0 5.0 20.0
  vertex 25.0 0.0 20.0
  vertex 30.0 5.0 20.0
 endloop
endfacet
facet normal 0.0 0.0 1.0
 outer loop
  vertex 20.0 5.0 20.0
  vertex 15.0 20.0 20.0
  vertex 10.0 5.0 20.0
 endloop
endfacet
facet normal 0.0 0.0 1.0
 outer loop
  vertex 75.0 20.0 20.0
  vertex 70.0 5.0 20.0
  vertex 80.0 5.0 20.0
 endloop
endfacet
facet normal 0.0 0.0 1.0
 outer loop
  vertex 55.0 20.0 20.0
  vertex 60.0 5.0 20.0
  vertex 70.0 5.0 20.0
 endloop
endfacet
facet normal -0.0 0.0 1.0
 outer loop
  vertex 55.0 20.0 20.0
  vertex 70.0 5.0 20.0
  vertex 75.0 20.0 20.0
 endloop
endfacet
facet normal 0.0 0.0 1.0
 outer loop
  vertex 60.0 35.0 20.0
  vertex 55.0 20.0 20.0
  vertex 75.0 20.0 20.0
 endloop
endfacet
facet normal -0.0 0.0 1.0
 outer loop
  vertex 60.0 35.0 20.0
  vertex 75.0 20.0 20.0
  vertex 70.0 35.0 20.0
 endloop
endfacet
facet normal 0.0 0.0 1.0
 outer loop
  vertex 35.0 20.0 20.0
  vertex 40.0 5.0 20.0
  vertex 50.0 5.0 20.0
 endloop
endfacet
facet normal -0.0 0.0 1.0
 outer loop
  vertex 35.0 20.0 20.0
  vertex 50.0 5.0 20.0
  vertex 55.0 20.0 20.0
 endloop
endfacet
facet normal 0.0 0.0 1.0
 outer loop
  vertex 40.0 35.0 20.0
  vertex 35.0 20.0 20.0
  vertex 55.0 20.0 20.0
 endloop
endfacet
facet normal -0.0 0.0 1.0
 outer loop
  vertex 40.0 35.0 20.0
  vertex 55.0 20.0 20.0
  vertex 50.0 35.0 20.0
 endloop
endfacet
facet normal 0.0 0.0 1.0
 outer loop
  vertex 15.0 20.0 20.0
  vertex 20.0 5.0 20.0
  vertex 30.0 5.0 20.0
 endloop
endfacet
facet normal -0.0 0.0 1.0
 outer loop
  vertex 15.0 20.0 20.0
  vertex 30.0 5.0 20.0
  vertex 35.0 20.0 20.0
 endloop
endfacet
facet normal 0.0 0.0 1.0
 outer loop
  vertex 20.0 35.0 20.0
  vertex 15.0 20.0 20.0
  vertex 35.0 20.0 20.0
 endloop
endfacet
facet normal -0.0 0.0 1.0
 outer loop
  vertex 20.0 35.0 20.0
  vertex 35.0 20.0 20.0
  vertex 30.0 35.0 20.0
 endloop
endfacet
facet normal 0.0 0.0 1.0
 outer loop
  vertex 80.0 5.0 20.0
  vertex 90.0 5.0 20.0
  vertex 95.0 10.0 20.0
 endloop
endfacet
facet normal 0.0 -0.0 1.0
 outer loop
  vertex 95.0 20.0 20.0
  vertex 95.0 30.0 20.0
  vertex 90.0 35.0 20.0
 endloop
endfacet
facet normal 0.0 0.0 1.0
 outer loop
  vertex 80.0 5.0 20.0
  vertex 95.0 10.0 20.0
  vertex 95.0 20.0 20.0
 endloop
endfacet
facet normal -0.0 0.0 1.0
 outer loop
  vertex 75.0 20.0 20.0
  vertex 80.0 5.0 20.0
  vertex 95.0 20.0 20.0
 endloop
endfacet
facet normal 0.0 0.0 1.0
 outer loop
  vertex 80.0 35.0 20.0
  vertex 75.0 20.0 20.0
  vertex 95.0 20.0 20.0
 endloop
endfacet
facet normal -0.0 0.0 1.0
 outer loop
  vertex 80.0 35.0 20.0
  vertex 95.0 20.0 20.0
  vertex 90.0 35.0 20.0
 endloop
endfacet
endsolid
